<svg data-v-29081953="" xmlns="http://www.w3.org/2000/svg" viewBox="0 0 300 300"><!----><defs data-v-29081953=""><!----></defs><rect data-v-29081953="" fill="transparent" x="0" y="0" width="300px" height="300px" class="logo-background-square"></rect><defs data-v-29081953=""><!----></defs><g data-v-29081953="" id="03263af3-000d-44d7-aa58-00f7aa36bcd1" fill="#000000" transform="matrix(2.1095054149627686,0,0,2.1095054149627686,111.42752870554007,121.08922773662572)"><path d="M2.81 5.15L2.81 14.62L2.87 14.62L2.87 14.62Q3.18 13.26 3.88 12.11L3.88 12.11L3.88 12.11Q4.58 10.96 5.60 10.96L5.60 10.96L5.60 10.96Q6.08 10.96 6.31 11.26L6.31 11.26L6.31 11.26Q6.54 11.55 6.59 11.95L6.59 11.95L6.59 11.95Q6.65 12.35 6.65 12.92L6.65 12.92L6.65 16.80L6.65 16.80Q6.65 16.97 6.75 17.12L6.75 17.12L6.75 17.12Q6.86 17.26 7.06 17.26L7.06 17.26L7.06 17.26Q7.39 17.26 7.76 16.77L7.76 16.77L7.99 17.04L7.99 17.04Q7.76 17.51 7.31 17.85L7.31 17.85L7.31 17.85Q6.86 18.19 6.33 18.19L6.33 18.19L6.33 18.19Q5.00 18.19 5.00 16.72L5.00 16.72L5.00 13.05L5.00 13.05Q5.00 12.87 4.94 12.72L4.94 12.72L4.94 12.72Q4.87 12.57 4.72 12.57L4.72 12.57L4.72 12.57Q4.13 12.57 3.70 13.55L3.70 13.55L3.70 13.55Q3.28 14.53 3.04 15.82L3.04 15.82L3.04 15.82Q2.81 17.11 2.81 17.91L2.81 17.91L1.13 18.27L1.13 5.74L2.81 5.15ZM12.63 11.09L12.63 11.09Q13.37 11.09 14.01 11.38L14.01 11.38L14.01 11.38Q14.64 11.68 14.95 12.29L14.95 12.29L13.59 12.85L13.59 12.85Q13.40 12.49 13.05 12.25L13.05 12.25L13.05 12.25Q12.70 12.01 12.31 12.01L12.31 12.01L12.31 12.01Q11.37 12.01 10.82 12.80L10.82 12.80L10.82 12.80Q10.28 13.58 10.28 14.76L10.28 14.76L10.28 14.76Q10.28 15.83 10.60 16.53L10.60 16.53L10.60 16.53Q10.92 17.22 11.62 17.22L11.62 17.22L11.62 17.22Q12.60 17.22 12.96 16.30L12.96 16.30L12.96 16.30Q13.33 15.39 13.33 14.31L13.33 14.31L13.33 13.69L14.97 13.10L14.97 16.74L14.97 16.74Q14.97 16.94 15.06 17.09L15.06 17.09L15.06 17.09Q15.15 17.23 15.33 17.23L15.33 17.23L15.33 17.23Q15.68 17.23 16.04 16.74L16.04 16.74L16.31 17.01L16.31 17.01Q16.10 17.50 15.65 17.84L15.65 17.84L15.65 17.84Q15.19 18.19 14.67 18.19L14.67 18.19L14.67 18.19Q14 18.19 13.69 17.73L13.69 17.73L13.69 17.73Q13.38 17.28 13.38 16.56L13.38 16.56L13.33 16.56L13.33 16.56Q12.99 17.32 12.43 17.79L12.43 17.79L12.43 17.79Q11.87 18.26 11.13 18.26L11.13 18.26L11.13 18.26Q10.01 18.26 9.40 17.44L9.40 17.44L9.40 17.44Q8.79 16.62 8.79 15.30L8.79 15.30L8.79 15.30Q8.79 14.18 9.28 13.22L9.28 13.22L9.28 13.22Q9.76 12.25 10.63 11.67L10.63 11.67L10.63 11.67Q11.51 11.09 12.63 11.09L12.63 11.09ZM19.15 10.51L19.15 10.51Q20.10 10.51 20.10 11.27L20.10 11.27L20.10 11.27Q20.09 11.61 19.96 11.86L19.96 11.86L19.96 11.86Q19.84 12.11 19.69 12.31L19.69 12.31L19.69 12.31Q19.54 12.50 19.49 12.57L19.49 12.57L19.49 12.57Q19.67 12.78 20.15 13.17L20.15 13.17L20.15 13.17Q20.58 13.52 20.85 13.81L20.85 13.81L20.85 13.81Q21.11 14.10 21.29 14.54L21.29 14.54L21.29 14.54Q21.48 14.98 21.48 15.61L21.48 15.61L21.48 15.61Q21.48 16.34 21.12 16.95L21.12 16.95L21.12 16.95Q20.76 17.56 20.15 17.91L20.15 17.91L20.15 17.91Q19.53 18.26 18.79 18.26L18.79 18.26L18.79 18.26Q18.24 18.26 17.65 18.06L17.65 18.06L17.65 18.06Q17.07 17.86 16.77 17.51L16.77 17.51L17.79 16.14L17.79 16.14Q18.09 16.59 18.49 16.94L18.49 16.94L18.49 16.94Q18.90 17.29 19.31 17.29L19.31 17.29L19.31 17.29Q19.82 17.29 20.20 16.94L20.20 16.94L20.20 16.94Q20.58 16.59 20.58 16.06L20.58 16.06L20.58 16.06Q20.58 15.62 20.22 15.20L20.22 15.20L20.22 15.20Q19.85 14.78 19.18 14.18L19.18 14.18L19.18 14.18Q18.72 13.78 18.59 13.64L18.59 13.64L17.64 15.02L17.14 14.69L18.23 13.17L18.23 13.17Q17.95 12.67 17.95 12.01L17.95 12.01L17.95 12.01Q17.95 11.37 18.26 10.94L18.26 10.94L18.26 10.94Q18.56 10.51 19.15 10.51L19.15 10.51ZM19.15 11.09L19.15 11.09Q18.98 11.09 18.93 11.19L18.93 11.19L18.93 11.19Q18.87 11.28 18.87 11.47L18.87 11.47L18.87 11.47Q18.87 11.62 18.93 11.77L18.93 11.77L18.93 11.77Q18.98 11.93 19.05 12.08L19.05 12.08L19.05 12.08Q19.21 11.97 19.32 11.75L19.32 11.75L19.32 11.75Q19.43 11.52 19.43 11.35L19.43 11.35L19.43 11.35Q19.43 11.24 19.36 11.17L19.36 11.17L19.36 11.17Q19.28 11.09 19.15 11.09L19.15 11.09ZM28.20 10.96L28.20 10.96Q28.69 10.96 28.91 11.25L28.91 11.25L28.91 11.25Q29.13 11.54 29.19 11.92L29.19 11.92L29.19 11.92Q29.25 12.31 29.25 12.91L29.25 12.91L29.25 16.80L29.25 16.80Q29.25 16.97 29.35 17.12L29.35 17.12L29.35 17.12Q29.46 17.26 29.61 17.26L29.61 17.26L29.61 17.26Q29.82 17.26 29.98 17.13L29.98 17.13L29.98 17.13Q30.14 17.00 30.32 16.77L30.32 16.77L30.56 17.04L30.56 17.04Q30.31 17.53 29.87 17.86L29.87 17.86L29.87 17.86Q29.43 18.19 28.92 18.19L28.92 18.19L28.92 18.19Q28.25 18.19 27.92 17.80L27.92 17.80L27.92 17.80Q27.58 17.42 27.58 16.72L27.58 16.72L27.58 13.05L27.58 13.05Q27.58 12.85 27.54 12.71L27.54 12.71L27.54 12.71Q27.50 12.57 27.34 12.57L27.34 12.57L27.34 12.57Q26.87 12.57 26.38 13.59L26.38 13.59L26.38 13.59Q25.89 14.60 25.55 15.92L25.55 15.92L25.55 15.92Q25.21 17.23 25.21 17.91L25.21 17.91L23.58 18.27L23.58 12.39L23.58 12.39Q23.58 12.18 23.48 12.04L23.48 12.04L23.48 12.04Q23.38 11.90 23.20 11.90L23.20 11.90L23.20 11.90Q23.00 11.90 22.81 12.06L22.81 12.06L22.81 12.06Q22.62 12.22 22.50 12.43L22.50 12.43L22.25 12.15L22.25 12.15Q22.46 11.66 22.90 11.31L22.90 11.31L22.90 11.31Q23.35 10.96 23.87 10.96L23.87 10.96L23.87 10.96Q24.57 10.96 24.89 11.35L24.89 11.35L24.89 11.35Q25.21 11.73 25.21 12.42L25.21 12.42L25.21 15.12L25.27 15.12L25.27 15.12Q25.65 13.57 26.40 12.26L26.40 12.26L26.40 12.26Q27.15 10.96 28.20 10.96L28.20 10.96ZM35.18 11.09L35.18 11.09Q35.92 11.09 36.56 11.38L36.56 11.38L36.56 11.38Q37.20 11.68 37.51 12.29L37.51 12.29L36.15 12.85L36.15 12.85Q35.95 12.49 35.60 12.25L35.60 12.25L35.60 12.25Q35.25 12.01 34.86 12.01L34.86 12.01L34.86 12.01Q33.92 12.01 33.38 12.80L33.38 12.80L33.38 12.80Q32.83 13.58 32.83 14.76L32.83 14.76L32.83 14.76Q32.83 15.83 33.15 16.53L33.15 16.53L33.15 16.53Q33.47 17.22 34.17 17.22L34.17 17.22L34.17 17.22Q35.15 17.22 35.52 16.30L35.52 16.30L35.52 16.30Q35.88 15.39 35.88 14.31L35.88 14.31L35.88 13.69L37.52 13.10L37.52 16.74L37.52 16.74Q37.52 16.94 37.61 17.09L37.61 17.09L37.61 17.09Q37.70 17.23 37.88 17.23L37.88 17.23L37.88 17.23Q38.23 17.23 38.60 16.74L38.60 16.74L38.86 17.01L38.86 17.01Q38.65 17.50 38.20 17.84L38.20 17.84L38.20 17.84Q37.74 18.19 37.23 18.19L37.23 18.19L37.23 18.19Q36.55 18.19 36.25 17.73L36.25 17.73L36.25 17.73Q35.94 17.28 35.94 16.56L35.94 16.56L35.88 16.56L35.88 16.56Q35.55 17.32 34.99 17.79L34.99 17.79L34.99 17.79Q34.43 18.26 33.68 18.26L33.68 18.26L33.68 18.26Q32.56 18.26 31.96 17.44L31.96 17.44L31.96 17.44Q31.35 16.62 31.35 15.30L31.35 15.30L31.35 15.30Q31.35 14.18 31.83 13.22L31.83 13.22L31.83 13.22Q32.31 12.25 33.19 11.67L33.19 11.67L33.19 11.67Q34.06 11.09 35.18 11.09L35.18 11.09ZM45.99 10.91L45.99 17.32L45.99 17.32Q45.99 18.58 45.40 19.73L45.40 19.73L45.40 19.73Q44.81 20.87 43.85 21.57L43.85 21.57L43.85 21.57Q42.88 22.26 41.83 22.26L41.83 22.26L41.83 22.26Q41.45 22.26 41.12 22.15L41.12 22.15L41.12 22.15Q40.78 22.04 40.42 21.78L40.42 21.78L41.45 20.48L41.45 20.48Q41.78 20.79 42.17 20.96L42.17 20.96L42.17 20.96Q42.56 21.14 42.87 21.14L42.87 21.14L42.87 21.14Q43.54 21.14 43.93 20.17L43.93 20.17L43.93 20.17Q44.32 19.19 44.32 17.50L44.32 17.50L44.32 17.50Q44.32 15.02 44.38 13.85L44.38 13.85L44.30 13.85L44.30 13.85Q43.32 18.26 41.48 18.26L41.48 18.26L41.48 18.26Q41.06 18.26 40.83 18.09L40.83 18.09L40.83 18.09Q40.60 17.92 40.51 17.51L40.51 17.51L40.51 17.51Q40.42 17.09 40.42 16.32L40.42 16.32L40.42 12.43L40.42 12.43Q40.42 12.19 40.32 12.06L40.32 12.06L40.32 12.06Q40.22 11.93 40.05 11.93L40.05 11.93L40.05 11.93Q39.89 11.93 39.70 12.05L39.70 12.05L39.70 12.05Q39.51 12.18 39.34 12.43L39.34 12.43L39.09 12.17L39.09 12.17Q39.41 11.51 39.78 11.24L39.78 11.24L39.78 11.24Q40.15 10.96 40.74 10.96L40.74 10.96L40.74 10.96Q41.38 10.96 41.73 11.35L41.73 11.35L41.73 11.35Q42.08 11.73 42.08 12.43L42.08 12.43L42.08 16.18L42.08 16.18Q42.08 16.42 42.15 16.55L42.15 16.55L42.15 16.55Q42.22 16.67 42.34 16.67L42.34 16.67L42.34 16.67Q42.67 16.67 43.13 15.79L43.13 15.79L43.13 15.79Q43.58 14.91 43.91 13.68L43.91 13.68L43.91 13.68Q44.24 12.45 44.24 11.49L44.24 11.49L45.99 10.91ZM51.76 10.96L51.76 10.96Q52.57 10.96 53.12 11.38L53.12 11.38L53.12 11.38Q53.66 11.79 53.66 12.57L53.66 12.57L53.66 12.57Q53.66 13.20 52.98 13.98L52.98 13.98L52.98 13.98Q52.30 14.76 51.37 15.42L51.37 15.42L51.37 15.42Q50.44 16.09 49.78 16.38L49.78 16.38L49.78 16.38Q50.37 17.32 51.51 17.32L51.51 17.32L51.51 17.32Q52.14 17.32 52.77 16.96L52.77 16.96L52.77 16.96Q53.41 16.60 53.86 16.02L53.86 16.02L54.14 16.35L54.14 16.35Q53.41 17.26 52.61 17.76L52.61 17.76L52.61 17.76Q51.80 18.26 50.69 18.26L50.69 18.26L50.69 18.26Q49.80 18.26 49.09 17.85L49.09 17.85L49.09 17.85Q48.38 17.44 47.98 16.74L47.98 16.74L47.98 16.74Q47.59 16.03 47.59 15.15L47.59 15.15L47.59 15.15Q47.59 14.08 48.17 13.11L48.17 13.11L48.17 13.11Q48.75 12.14 49.71 11.55L49.71 11.55L49.71 11.55Q50.68 10.96 51.76 10.96L51.76 10.96ZM50.96 11.87L50.96 11.87Q50.43 11.87 50.01 12.26L50.01 12.26L50.01 12.26Q49.59 12.64 49.35 13.24L49.35 13.24L49.35 13.24Q49.11 13.85 49.11 14.49L49.11 14.49L49.11 14.49Q49.11 15.33 49.48 15.93L49.48 15.93L49.48 15.93Q49.99 15.64 50.58 15.11L50.58 15.11L50.58 15.11Q51.16 14.59 51.55 13.99L51.55 13.99L51.55 13.99Q51.94 13.38 51.94 12.89L51.94 12.89L51.94 12.89Q51.94 12.40 51.68 12.14L51.68 12.14L51.68 12.14Q51.42 11.87 50.96 11.87L50.96 11.87ZM59.19 10.96L59.19 10.96Q60.00 10.96 60.55 11.38L60.55 11.38L60.55 11.38Q61.10 11.79 61.10 12.57L61.10 12.57L61.10 12.57Q61.10 13.20 60.42 13.98L60.42 13.98L60.42 13.98Q59.74 14.76 58.81 15.42L58.81 15.42L58.81 15.42Q57.88 16.09 57.22 16.38L57.22 16.38L57.22 16.38Q57.81 17.32 58.94 17.32L58.94 17.32L58.94 17.32Q59.57 17.32 60.21 16.96L60.21 16.96L60.21 16.96Q60.84 16.60 61.29 16.02L61.29 16.02L61.57 16.35L61.57 16.35Q60.84 17.26 60.04 17.76L60.04 17.76L60.04 17.76Q59.23 18.26 58.13 18.26L58.13 18.26L58.13 18.26Q57.23 18.26 56.52 17.85L56.52 17.85L56.52 17.85Q55.82 17.44 55.42 16.74L55.42 16.74L55.42 16.74Q55.02 16.03 55.02 15.15L55.02 15.15L55.02 15.15Q55.02 14.08 55.60 13.11L55.60 13.11L55.60 13.11Q56.18 12.14 57.15 11.55L57.15 11.55L57.15 11.55Q58.11 10.96 59.19 10.96L59.19 10.96ZM58.39 11.87L58.39 11.87Q57.86 11.87 57.44 12.26L57.44 12.26L57.44 12.26Q57.02 12.64 56.78 13.24L56.78 13.24L56.78 13.24Q56.55 13.85 56.55 14.49L56.55 14.49L56.55 14.49Q56.55 15.33 56.91 15.93L56.91 15.93L56.91 15.93Q57.43 15.64 58.01 15.11L58.01 15.11L58.01 15.11Q58.59 14.59 58.98 13.99L58.98 13.99L58.98 13.99Q59.37 13.38 59.37 12.89L59.37 12.89L59.37 12.89Q59.37 12.40 59.12 12.14L59.12 12.14L59.12 12.14Q58.86 11.87 58.39 11.87L58.39 11.87ZM68.07 10.96L68.07 10.96Q68.56 10.96 68.78 11.25L68.78 11.25L68.78 11.25Q69.01 11.54 69.06 11.92L69.06 11.92L69.06 11.92Q69.12 12.31 69.12 12.91L69.12 12.91L69.12 16.80L69.12 16.80Q69.12 16.97 69.22 17.12L69.22 17.12L69.22 17.12Q69.33 17.26 69.48 17.26L69.48 17.26L69.48 17.26Q69.69 17.26 69.85 17.13L69.85 17.13L69.85 17.13Q70.01 17.00 70.20 16.77L70.20 16.77L70.43 17.04L70.43 17.04Q70.18 17.53 69.74 17.86L69.74 17.86L69.74 17.86Q69.30 18.19 68.80 18.19L68.80 18.19L68.80 18.19Q68.12 18.19 67.79 17.80L67.79 17.80L67.79 17.80Q67.45 17.42 67.45 16.72L67.45 16.72L67.45 13.05L67.45 13.05Q67.45 12.85 67.41 12.71L67.41 12.71L67.41 12.71Q67.37 12.57 67.21 12.57L67.21 12.57L67.21 12.57Q66.74 12.57 66.25 13.59L66.25 13.59L66.25 13.59Q65.76 14.60 65.42 15.92L65.42 15.92L65.42 15.92Q65.09 17.23 65.09 17.91L65.09 17.91L63.45 18.27L63.45 12.39L63.45 12.39Q63.45 12.18 63.35 12.04L63.35 12.04L63.35 12.04Q63.25 11.90 63.07 11.90L63.07 11.90L63.07 11.90Q62.87 11.90 62.68 12.06L62.68 12.06L62.68 12.06Q62.50 12.22 62.37 12.43L62.37 12.43L62.12 12.15L62.12 12.15Q62.33 11.66 62.78 11.31L62.78 11.31L62.78 11.31Q63.22 10.96 63.74 10.96L63.74 10.96L63.74 10.96Q64.44 10.96 64.76 11.35L64.76 11.35L64.76 11.35Q65.09 11.73 65.09 12.42L65.09 12.42L65.09 15.12L65.14 15.12L65.14 15.12Q65.52 13.57 66.27 12.26L66.27 12.26L66.27 12.26Q67.02 10.96 68.07 10.96L68.07 10.96Z"></path></g><defs data-v-29081953=""><!----></defs><g data-v-29081953="" id="271042a0-56aa-44c3-a5a8-3994423c8b8e" stroke="#000000" fill="none" transform="matrix(1.029311180114746,0,0,1.029311180114746,15.279473633523807,99.25561270148371)"><g stroke-width="3" stroke-linecap="round" stroke-miterlimit="10"><path d="M64.864 69.538c4.344-1.55 15.194 5.94 15.194 5.94.287.319 1.178-.016 1.993-.748.814-.731 1.243-1.583.956-1.901l-6.924-7.703M71.206 51.932c4.192-.305 7.747 1.605 7.941 4.266.125 1.731-.68 3.087-2.415 3.908M46.951 44.335c.888-3.884 7.562-5.669 14.907-3.988 7.344 1.681 12.577 6.192 11.689 10.077M31.236 67.139c-.354 2.945 2.651 5.727 6.71 6.214 4.061.485 7.637-1.508 7.99-4.452M30.155 52.363c-1.507-3.122.902-7.406 5.381-9.568 4.479-2.163 9.331-1.384 10.838 1.739M30.17 67.923c-3.438-.032-6.193-3.445-6.153-7.621.039-4.176 2.859-7.536 6.297-7.503"></path><path d="M46.241 69.517c.311 4.276 3.204 5.289 7.983 4.94 2.391-.173 5.375-1.173 6.838-2.688 0 0 5.129-4.489 10.951-4.775M55.967 63.905c-.489-2.435-3.935-3.792-7.703-3.034M53.862 61.422c-.501-2.494 1.484-4.993 4.44-5.588M31.192 65.659c-.503-2.493 1.484-4.992 4.44-5.587M76.267 60.473c1.926.441 3.183 2.133 2.806 3.779-.246 1.071-.843 1.774-1.759 2.014M40.377 48.07c.549-2.484 3.377-3.966 6.32-3.314M45.829 69.087c.384-2.454-2.378-4.921-6.175-5.517M64.149 48.965c-.489-2.435-3.936-3.792-7.703-3.034"></path></g><path stroke="#000" stroke-width="3" stroke-linecap="round" stroke-miterlimit="10" d="M63.639 35.481l4.59-8.539M40.292 36.754l-5.544-7.956M50.5 34V23"></path></g><!----></svg>