<svg data-v-29081953="" xmlns="http://www.w3.org/2000/svg" viewBox="0 0 300 300"><!----><defs data-v-29081953=""><!----></defs><rect data-v-29081953="" fill="transparent" x="0" y="0" width="300px" height="300px" class="logo-background-square"></rect><defs data-v-29081953=""><!----></defs><g data-v-29081953="" id="0551f53e-0baa-44ee-8f7a-c51082c70c12" fill="#000000" transform="matrix(2.799372911453247,0,0,2.799372911453247,106.31441804739227,123.8952850433952)"><path d="M1.60 3.51L0.55 4.14L0.55 4.14Q0.81 4.59 0.77 5.50L0.77 5.50L0.77 5.50Q0.75 11.40 0.86 11.88L0.86 11.88L0.86 11.88Q0.98 12.37 1.46 12.71L1.46 12.71L2.33 11.96L2.33 11.96Q1.96 11.46 1.89 10.78L1.89 10.78L1.89 10.78Q1.82 10.10 1.89 8.21L1.89 8.21L1.89 8.21Q2.80 7.25 3.93 7.23L3.93 7.23L3.93 7.23Q5.06 7.21 4.89 9.29L4.89 9.29L4.89 9.29Q4.85 11.34 4.99 11.82L4.99 11.82L4.99 11.82Q5.12 12.30 5.61 12.68L5.61 12.68L6.43 11.88L6.43 11.88Q6.04 11.82 5.94 11.01L5.94 11.01L5.94 11.01Q5.84 10.20 5.91 8.76L5.91 8.76L5.91 8.76Q5.96 7.88 5.77 7.35L5.77 7.35L5.77 7.35Q5.58 6.82 4.93 6.58L4.93 6.58L4.93 6.58Q4.27 6.33 3.66 6.50L3.66 6.50L3.66 6.50Q3.06 6.67 2.65 7.01L2.65 7.01L2.65 7.01Q2.24 7.36 1.92 7.55L1.92 7.55L1.89 4.85L1.89 4.85Q1.93 3.89 1.60 3.51L1.60 3.51ZM9.67 6.54L9.67 6.54L9.67 6.54Q8.65 6.56 7.81 7.23L7.81 7.23L7.81 7.23Q6.97 7.90 7.39 8.74L7.39 8.74L8.50 8.07L8.50 8.07Q8.29 6.90 9.71 7.03L9.71 7.03L9.71 7.03Q11.14 7.15 10.95 8.89L10.95 8.89L10.95 8.89Q9.84 8.39 8.97 8.61L8.97 8.61L8.97 8.61Q8.09 8.82 7.35 9.71L7.35 9.71L7.35 9.71Q6.76 10.58 6.98 11.18L6.98 11.18L6.98 11.18Q7.19 11.79 7.67 12.23L7.67 12.23L7.67 12.23Q8.16 12.67 8.75 12.71L8.75 12.71L8.75 12.71Q9.35 12.76 9.76 12.48L9.76 12.48L9.76 12.48Q10.17 12.20 10.96 11.49L10.96 11.49L10.96 11.49Q11.03 12.36 11.53 12.76L11.53 12.76L12.64 11.80L12.55 11.64L12.55 11.64Q11.98 12.10 11.92 10.58L11.92 10.58L11.93 8.14L11.93 8.14Q11.89 7.23 11.29 6.88L11.29 6.88L11.29 6.88Q10.69 6.53 9.67 6.54ZM10.65 9.84L10.65 9.84L10.92 9.47L10.93 11.08L10.93 11.08Q10.06 11.95 9.44 11.90L9.44 11.90L9.44 11.90Q8.82 11.85 8.39 11.48L8.39 11.48L8.39 11.48Q7.97 11.12 7.78 10.64L7.78 10.64L7.78 10.64Q7.59 10.17 7.85 9.71L7.85 9.71L7.85 9.71Q8.12 9.26 8.91 9.19L8.91 9.19L8.91 9.19Q9.69 9.11 10.65 9.84ZM15.96 6.53L15.96 6.53L15.96 6.53Q15.29 6.63 14.84 6.92L14.84 6.92L14.84 6.92Q14.39 7.21 14.03 7.57L14.03 7.57L14.03 7.57Q13.67 7.94 13.58 8.43L13.58 8.43L13.58 8.43Q13.48 8.93 13.91 9.37L13.91 9.37L13.91 9.37Q14.33 9.80 15.39 10.02L15.39 10.02L15.39 10.02Q16.44 10.24 16.84 10.47L16.84 10.47L16.84 10.47Q17.24 10.70 17.33 11.11L17.33 11.11L17.33 11.11Q17.42 11.53 17.12 11.79L17.12 11.79L17.12 11.79Q16.82 12.05 16.04 11.93L16.04 11.93L16.04 11.93Q15.26 11.81 14.86 11.55L14.86 11.55L14.86 11.55Q14.45 11.29 14.09 10.89L14.09 10.89L14.09 10.89Q13.73 10.50 14 10.34L14 10.34L13.91 10.25L13.15 10.84L13.15 10.84Q13.02 11.20 13.42 11.70L13.42 11.70L13.42 11.70Q13.81 12.21 14.39 12.52L14.39 12.52L14.39 12.52Q14.97 12.82 15.70 12.80L15.70 12.80L15.70 12.80Q16.42 12.78 17.02 12.34L17.02 12.34L17.02 12.34Q17.62 11.90 17.92 11.35L17.92 11.35L17.92 11.35Q18.22 10.81 18.13 10.36L18.13 10.36L18.13 10.36Q18.04 9.91 17.63 9.56L17.63 9.56L17.63 9.56Q17.21 9.20 15.91 8.95L15.91 8.95L15.91 8.95Q14.60 8.70 14.55 8.09L14.55 8.09L14.55 8.09Q14.49 7.48 15.09 7.31L15.09 7.31L15.09 7.31Q15.68 7.14 16.40 7.45L16.40 7.45L16.40 7.45Q17.11 7.76 16.83 8.13L16.83 8.13L16.92 8.24L17.73 7.40L17.73 7.40Q17.62 6.93 17.12 6.68L17.12 6.68L17.12 6.68Q16.62 6.43 15.96 6.53ZM20.00 6.39L18.65 7.22L18.74 7.33L18.74 7.33Q19.37 6.92 19.35 8.52L19.35 8.52L19.35 8.52Q19.28 11.43 19.37 11.88L19.37 11.88L19.37 11.88Q19.46 12.34 20.21 12.70L20.21 12.70L21.21 12.00L21.16 11.86L21.16 11.86Q20.60 12.18 20.48 11.16L20.48 11.16L20.48 11.16Q20.36 10.14 20.43 8.24L20.43 8.24L20.43 8.24Q21.75 6.81 22.71 7.10L22.71 7.10L22.71 7.10Q23.67 7.39 23.52 9.29L23.52 9.29L23.52 9.29Q23.49 11.34 23.54 11.83L23.54 11.83L23.54 11.83Q23.58 12.32 24.18 12.68L24.18 12.68L25.22 11.95L25.13 11.79L25.13 11.79Q24.65 12.04 24.58 11.10L24.58 11.10L24.58 11.10Q24.51 10.17 24.58 8.73L24.58 8.73L24.58 8.73Q24.63 7.85 24.36 7.26L24.36 7.26L24.36 7.26Q24.10 6.68 23.42 6.44L23.42 6.44L23.42 6.44Q22.74 6.20 21.93 6.55L21.93 6.55L21.93 6.55Q21.12 6.90 20.46 7.59L20.46 7.59L20.46 7.59Q20.52 6.75 20.00 6.39L20.00 6.39ZM28.38 6.54L28.38 6.54L28.38 6.54Q27.36 6.56 26.52 7.23L26.52 7.23L26.52 7.23Q25.68 7.90 26.10 8.74L26.10 8.74L27.21 8.07L27.21 8.07Q27.00 6.90 28.42 7.03L28.42 7.03L28.42 7.03Q29.85 7.15 29.66 8.89L29.66 8.89L29.66 8.89Q28.55 8.39 27.68 8.61L27.68 8.61L27.68 8.61Q26.80 8.82 26.06 9.71L26.06 9.71L26.06 9.71Q25.47 10.58 25.69 11.18L25.69 11.18L25.69 11.18Q25.90 11.79 26.38 12.23L26.38 12.23L26.38 12.23Q26.87 12.67 27.46 12.71L27.46 12.71L27.46 12.71Q28.06 12.76 28.47 12.48L28.47 12.48L28.47 12.48Q28.88 12.20 29.67 11.49L29.67 11.49L29.67 11.49Q29.74 12.36 30.24 12.76L30.24 12.76L31.35 11.80L31.26 11.64L31.26 11.64Q30.69 12.10 30.63 10.58L30.63 10.58L30.64 8.14L30.64 8.14Q30.60 7.23 30.00 6.88L30.00 6.88L30.00 6.88Q29.40 6.53 28.38 6.54ZM29.36 9.84L29.36 9.84L29.63 9.47L29.64 11.08L29.64 11.08Q28.77 11.95 28.15 11.90L28.15 11.90L28.15 11.90Q27.53 11.85 27.10 11.48L27.10 11.48L27.10 11.48Q26.68 11.12 26.49 10.64L26.49 10.64L26.49 10.64Q26.30 10.17 26.56 9.71L26.56 9.71L26.56 9.71Q26.83 9.26 27.62 9.19L27.62 9.19L27.62 9.19Q28.40 9.11 29.36 9.84ZM36.63 6.38L35.56 6.95L35.56 6.95Q36.07 7.05 36.00 8.03L36.00 8.03L35.99 11.01L35.99 11.01Q35.32 12.35 34.36 12.13L34.36 12.13L34.36 12.13Q33.41 11.92 33.25 10.98L33.25 10.98L33.26 7.56L33.26 7.56Q33.26 6.67 32.74 6.43L32.74 6.43L31.81 6.97L31.81 6.97Q32.28 7.26 32.23 8.49L32.23 8.49L32.22 11.03L32.22 11.03Q32.30 11.86 32.85 12.35L32.85 12.35L32.85 12.35Q33.40 12.84 34.51 12.71L34.51 12.71L34.51 12.71Q35.62 12.58 36.06 11.81L36.06 11.81L36.06 11.81Q36.11 13.16 35.86 13.84L35.86 13.84L35.86 13.84Q35.61 14.52 34.30 14.25L34.30 14.25L34.30 14.25Q32.99 13.99 32.48 13.22L32.48 13.22L31.82 14.03L31.82 14.03Q33.25 15.42 34.47 15.07L34.47 15.07L34.47 15.07Q35.68 14.71 36.33 14.10L36.33 14.10L36.33 14.10Q36.98 13.49 37.00 12.53L37.00 12.53L36.99 7.94L36.99 7.94Q37.13 6.86 36.63 6.38L36.63 6.38ZM40.94 6.60L40.94 6.60L40.94 6.60Q39.87 6.43 38.94 7.26L38.94 7.26L38.94 7.26Q38.01 8.09 37.75 9.20L37.75 9.20L37.75 9.20Q37.50 10.31 37.92 11.26L37.92 11.26L37.92 11.26Q38.34 12.22 39.48 12.62L39.48 12.62L39.48 12.62Q40.41 12.93 41.41 12.18L41.41 12.18L41.41 12.18Q42.42 11.43 42.53 10.84L42.53 10.84L42.32 10.68L42.32 10.68Q41.50 11.85 40.72 11.81L40.72 11.81L40.72 11.81Q39.94 11.76 39.56 11.46L39.56 11.46L39.56 11.46Q39.17 11.15 38.96 10.80L38.96 10.80L40.85 9.54L40.85 9.54Q42.29 8.65 42.15 7.70L42.15 7.70L42.15 7.70Q42.01 6.76 40.94 6.60ZM38.51 8.75L38.51 8.75L38.51 8.75Q38.51 8.12 39.02 7.58L39.02 7.58L39.02 7.58Q39.53 7.04 40.12 7.19L40.12 7.19L40.12 7.19Q40.72 7.34 40.96 8.00L40.96 8.00L40.96 8.00Q41.19 8.67 40.90 9.02L40.90 9.02L40.90 9.02Q40.61 9.37 38.78 10.40L38.78 10.40L38.78 10.40Q38.62 10.04 38.56 9.71L38.56 9.71L38.56 9.71Q38.50 9.37 38.51 8.75ZM46.30 6.60L46.30 6.60L46.30 6.60Q45.23 6.43 44.30 7.26L44.30 7.26L44.30 7.26Q43.37 8.09 43.11 9.20L43.11 9.20L43.11 9.20Q42.85 10.31 43.27 11.26L43.27 11.26L43.27 11.26Q43.70 12.22 44.84 12.62L44.84 12.62L44.84 12.62Q45.77 12.93 46.77 12.18L46.77 12.18L46.77 12.18Q47.78 11.43 47.89 10.84L47.89 10.84L47.68 10.68L47.68 10.68Q46.86 11.85 46.08 11.81L46.08 11.81L46.08 11.81Q45.30 11.76 44.92 11.46L44.92 11.46L44.92 11.46Q44.53 11.15 44.32 10.80L44.32 10.80L46.21 9.54L46.21 9.54Q47.65 8.65 47.51 7.70L47.51 7.70L47.51 7.70Q47.37 6.76 46.30 6.60ZM43.87 8.75L43.87 8.75L43.87 8.75Q43.87 8.12 44.38 7.58L44.38 7.58L44.38 7.58Q44.88 7.04 45.48 7.19L45.48 7.19L45.48 7.19Q46.08 7.34 46.32 8.00L46.32 8.00L46.32 8.00Q46.55 8.67 46.26 9.02L46.26 9.02L46.26 9.02Q45.96 9.37 44.14 10.40L44.14 10.40L44.14 10.40Q43.98 10.04 43.92 9.71L43.92 9.71L43.92 9.71Q43.86 9.37 43.87 8.75ZM49.68 6.39L48.33 7.22L48.42 7.33L48.42 7.33Q49.05 6.92 49.03 8.52L49.03 8.52L49.03 8.52Q48.97 11.43 49.05 11.88L49.05 11.88L49.05 11.88Q49.14 12.34 49.90 12.70L49.90 12.70L50.89 12.00L50.84 11.86L50.84 11.86Q50.29 12.18 50.16 11.16L50.16 11.16L50.16 11.16Q50.04 10.14 50.11 8.24L50.11 8.24L50.11 8.24Q51.43 6.81 52.39 7.10L52.39 7.10L52.39 7.10Q53.35 7.39 53.20 9.29L53.20 9.29L53.20 9.29Q53.17 11.34 53.22 11.83L53.22 11.83L53.22 11.83Q53.27 12.32 53.86 12.68L53.86 12.68L54.90 11.95L54.81 11.79L54.81 11.79Q54.33 12.04 54.26 11.10L54.26 11.10L54.26 11.10Q54.20 10.17 54.26 8.73L54.26 8.73L54.26 8.73Q54.31 7.85 54.04 7.26L54.04 7.26L54.04 7.26Q53.78 6.68 53.10 6.44L53.10 6.44L53.10 6.44Q52.42 6.20 51.61 6.55L51.61 6.55L51.61 6.55Q50.80 6.90 50.14 7.59L50.14 7.59L50.14 7.59Q50.20 6.75 49.68 6.39L49.68 6.39Z"></path></g><defs data-v-29081953=""><linearGradient data-v-29081953="" gradientTransform="rotate(25)" id="517d67ba-5794-4d90-b4f6-0223390ebd6f" x1="0%" y1="0%" x2="100%" y2="0%"><stop data-v-29081953="" offset="0%" stop-color="#51A4FB" stop-opacity="1"></stop><stop data-v-29081953="" offset="100%" stop-color="#51A4FB" stop-opacity="1"></stop></linearGradient></defs><g data-v-29081953="" id="f4934017-eb26-463e-a998-f5b6dd069775" stroke="url(#517d67ba-5794-4d90-b4f6-0223390ebd6f)" fill="none" transform="matrix(0.9284778237342834,0,0,0.9284778237342834,17.701147044838642,104.22663684848274)"><g stroke-width="3" stroke-linecap="round" stroke-miterlimit="10"><path d="M64.864 69.538c4.344-1.55 15.194 5.94 15.194 5.94.287.319 1.178-.016 1.993-.748.814-.731 1.243-1.583.956-1.901l-6.924-7.703M71.206 51.932c4.192-.305 7.747 1.605 7.941 4.266.125 1.731-.68 3.087-2.415 3.908M46.951 44.335c.888-3.884 7.562-5.669 14.907-3.988 7.344 1.681 12.577 6.192 11.689 10.077M31.236 67.139c-.354 2.945 2.651 5.727 6.71 6.214 4.061.485 7.637-1.508 7.99-4.452M30.155 52.363c-1.507-3.122.902-7.406 5.381-9.568 4.479-2.163 9.331-1.384 10.838 1.739M30.17 67.923c-3.438-.032-6.193-3.445-6.153-7.621.039-4.176 2.859-7.536 6.297-7.503"></path><path d="M46.241 69.517c.311 4.276 3.204 5.289 7.983 4.94 2.391-.173 5.375-1.173 6.838-2.688 0 0 5.129-4.489 10.951-4.775M55.967 63.905c-.489-2.435-3.935-3.792-7.703-3.034M53.862 61.422c-.501-2.494 1.484-4.993 4.44-5.588M31.192 65.659c-.503-2.493 1.484-4.992 4.44-5.587M76.267 60.473c1.926.441 3.183 2.133 2.806 3.779-.246 1.071-.843 1.774-1.759 2.014M40.377 48.07c.549-2.484 3.377-3.966 6.32-3.314M45.829 69.087c.384-2.454-2.378-4.921-6.175-5.517M64.149 48.965c-.489-2.435-3.936-3.792-7.703-3.034"></path></g><path stroke="#000" stroke-width="3" stroke-linecap="round" stroke-miterlimit="10" d="M63.639 35.481l4.59-8.539M40.292 36.754l-5.544-7.956M50.5 34V23"></path></g><!----></svg>