<svg data-v-29081953="" xmlns="http://www.w3.org/2000/svg" viewBox="0 0 300 300"><!----><defs data-v-29081953=""><!----></defs><rect data-v-29081953="" fill="transparent" x="0" y="0" width="300px" height="300px" class="logo-background-square"></rect><!----><defs data-v-29081953=""><linearGradient data-v-29081953="" gradientTransform="rotate(25)" id="06fefaee-511e-4fa1-94ec-fc25a2ac10b8" x1="0%" y1="0%" x2="100%" y2="0%"><stop data-v-29081953="" offset="0%" stop-color="#51A4FB" stop-opacity="1"></stop><stop data-v-29081953="" offset="100%" stop-color="#51A4FB" stop-opacity="1"></stop></linearGradient></defs><g data-v-29081953="" id="fd57dd57-8911-4238-a129-b7918478cd5f" fill="none" stroke="url(#06fefaee-511e-4fa1-94ec-fc25a2ac10b8)" transform="matrix(3.7237911224365234,0,0,3.7237911224365234,-49.432695935962215,-33.580531111959985)"><g stroke-width="3" stroke-linecap="round" stroke-miterlimit="10"><path d="M64.864 69.538c4.344-1.55 15.194 5.94 15.194 5.94.287.319 1.178-.016 1.993-.748.814-.731 1.243-1.583.956-1.901l-6.924-7.703M71.206 51.932c4.192-.305 7.747 1.605 7.941 4.266.125 1.731-.68 3.087-2.415 3.908M46.951 44.335c.888-3.884 7.562-5.669 14.907-3.988 7.344 1.681 12.577 6.192 11.689 10.077M31.236 67.139c-.354 2.945 2.651 5.727 6.71 6.214 4.061.485 7.637-1.508 7.99-4.452M30.155 52.363c-1.507-3.122.902-7.406 5.381-9.568 4.479-2.163 9.331-1.384 10.838 1.739M30.17 67.923c-3.438-.032-6.193-3.445-6.153-7.621.039-4.176 2.859-7.536 6.297-7.503"></path><path d="M46.241 69.517c.311 4.276 3.204 5.289 7.983 4.94 2.391-.173 5.375-1.173 6.838-2.688 0 0 5.129-4.489 10.951-4.775M55.967 63.905c-.489-2.435-3.935-3.792-7.703-3.034M53.862 61.422c-.501-2.494 1.484-4.993 4.44-5.588M31.192 65.659c-.503-2.493 1.484-4.992 4.44-5.587M76.267 60.473c1.926.441 3.183 2.133 2.806 3.779-.246 1.071-.843 1.774-1.759 2.014M40.377 48.07c.549-2.484 3.377-3.966 6.32-3.314M45.829 69.087c.384-2.454-2.378-4.921-6.175-5.517M64.149 48.965c-.489-2.435-3.936-3.792-7.703-3.034"></path></g><path stroke="#000" stroke-width="3" stroke-linecap="round" stroke-miterlimit="10" d="M63.639 35.481l4.59-8.539M40.292 36.754l-5.544-7.956M50.5 34V23"></path></g><!----></svg>